<svg xmlns="http://www.w3.org/2000/svg" width="24" height="24" viewBox="0 0 24 24">
    <g fill="none" fill-rule="evenodd">
        <circle cx="12" cy="12" r="12" fill="#F2F3F6"/>
        <path fill="#000" fill-rule="nonzero" d="M8.243 14.554l2.546-2.562-2.546-2.546c-.324-.324-.324-.864 0-1.203.34-.324.88-.324 1.203 0l2.546 2.546 2.562-2.546c.324-.324.864-.324 1.203 0 .324.34.324.88 0 1.203l-2.561 2.546 2.561 2.562c.324.324.324.864 0 1.203-.34.324-.88.324-1.203 0l-2.562-2.561-2.546 2.561c-.324.324-.864.324-1.203 0-.324-.34-.324-.88 0-1.203z" opacity=".7"/>
    </g>
</svg>
