<svg xmlns="http://www.w3.org/2000/svg" width="14" height="17" viewBox="0 0 14 17">
    <g opacity=".7">
        <path d="M12.142 1.371H8.64C8.64.621 8.006 0 7.239 0h-.934c-.768 0-1.401.62-1.401 1.371H1.4C.634 1.371 0 1.991 0 2.743v.196c0 .147.117.261.267.261h12.976c.15 0 .267-.114.267-.261v-.196c.033-.751-.584-1.372-1.368-1.372zM1.156 14.852c0 .738.634 1.348 1.402 1.348h8.395c.768 0 1.403-.61 1.403-1.348V5h-11.2v9.852zm6.4-6.836c0-.34.357-.616.8-.616.442 0 .8.275.8.616v5.168c0 .34-.358.616-.8.616-.443 0-.8-.275-.8-.616V8.016zm-3.2 0c0-.34.357-.616.8-.616.442 0 .8.275.8.616v5.168c0 .34-.358.616-.8.616-.443 0-.8-.275-.8-.616V8.016z"/>
    </g>
</svg>
