<svg xmlns="http://www.w3.org/2000/svg" width="15" height="7" viewBox="0 0 15 7">
    <g fill="#FFF">
        <path d="M5.845 2.385c.042.038.065.091.065.147v2.11c0 .062-.029.12-.079.158-.1.075-2.467 1.848-4.886 2.207l-.03.002c-.077 0-.149-.045-.181-.117C-.933 3.175.751.222.824.098c.044-.075.133-.113.218-.092.121.029 2.995.737 4.803 2.38zM13.641.098c-.044-.075-.133-.113-.219-.092-.121.029-2.995.737-4.803 2.38-.042.037-.065.09-.065.146v2.11c0 .062.029.12.078.158.1.075 2.468 1.848 4.886 2.207l.029.002c.077 0 .15-.045.181-.117 1.67-3.717-.014-6.67-.087-6.794zM7.997 2.406H6.526c-.11 0-.2.09-.2.2v1.975c0 .11.09.2.2.2h1.471c.11 0 .2-.09.2-.2V2.607c0-.111-.09-.201-.2-.201z"/>
    </g>
</svg>
